<?xml version="1.0" encoding="utf-8" ?>
<svg xmlns="http://www.w3.org/2000/svg" xmlns:xlink="http://www.w3.org/1999/xlink" width="436" height="400">
	<path fill="#232021" d="M235.542 50.0733C235.601 50.0992 235.663 50.1192 235.718 50.1512C236.021 50.3253 236.202 50.5709 236.32 50.8928C236.848 52.3238 237.112 53.9723 237.505 55.454Q238.581 59.4451 240.022 63.3191C243.364 72.1958 249.209 81.2923 257.424 86.3672C260.223 88.0964 263.292 89.1945 266.278 90.5379C263.168 92.2142 259.876 93.5025 256.879 95.3944C248.466 100.705 241.895 109.471 238.702 118.873C237.55 122.266 237.213 126.788 235.809 129.82L235.254 129.9C234.514 126.314 233.819 122.702 232.62 119.235C229.028 108.844 221.687 99.2962 211.912 94.0286C209.395 92.6718 206.586 91.8794 204.009 90.6223C206.204 89.2606 208.903 88.6012 211.255 87.5027C222.231 82.3759 228.946 71.0191 232.686 59.9535C233.752 56.7983 234.278 53.4472 235.442 50.3362L235.542 50.0733Z"/>
	<path fill="#232021" d="M297.826 121.9C298.291 122.197 298.457 122.375 298.645 122.902C299.48 125.24 299.893 127.799 300.584 130.19Q302.532 136.746 305.249 143.023C310.982 155.97 319.658 167.603 332.483 174.165C335.619 175.77 339.697 176.225 342.586 178.098C341.763 179.697 334.865 181.958 332.775 183.029Q331.389 183.755 330.039 184.547Q328.69 185.34 327.381 186.197Q326.072 187.054 324.806 187.974Q323.54 188.894 322.32 189.875Q321.101 190.855 319.93 191.894Q318.76 192.932 317.641 194.027Q316.523 195.121 315.459 196.268Q314.395 197.416 313.388 198.614Q312.381 199.812 311.434 201.057Q310.486 202.303 309.601 203.593Q308.715 204.883 307.893 206.214Q307.071 207.546 306.315 208.916Q305.559 210.286 304.87 211.691Q304.182 213.096 303.562 214.534Q302.943 215.971 302.394 217.436Q301.846 218.902 301.369 220.392C300.415 223.323 299.842 226.34 299.223 229.354C298.947 230.7 298.707 233.15 297.641 234.06L297.305 233.699C296.373 229.042 295.511 224.412 293.996 219.9Q293.514 218.462 292.966 217.048Q292.418 215.635 291.804 214.248Q291.19 212.861 290.512 211.505Q289.834 210.148 289.093 208.825Q288.353 207.502 287.551 206.215Q286.75 204.928 285.889 203.679Q285.028 202.431 284.109 201.224Q283.191 200.017 282.217 198.855Q281.244 197.692 280.217 196.577Q279.19 195.461 278.112 194.394Q277.034 193.328 275.907 192.313Q274.781 191.298 273.608 190.336Q272.435 189.375 271.219 188.47Q270.002 187.564 268.745 186.717Q267.487 185.869 266.192 185.081Q264.896 184.293 263.565 183.567C261.295 182.336 252.207 178.91 251.427 178.099L251.476 177.768C252.976 176.89 255.4 176.789 257.121 176.26C275.526 170.602 287.337 153.515 293.523 136.176C294.936 132.216 296.179 124.984 297.826 121.9Z"/>
	<path fill="#232021" d="M170.815 112.388C171.806 113.23 172.041 115.697 172.326 116.96C181.868 159.188 203.334 202.928 244.16 222.375C247.198 223.822 250.326 225.158 253.578 226.049C256.258 226.783 259.135 227.244 261.749 228.151C262.304 228.344 262.679 228.488 263.056 228.946C262.755 229.545 261.74 229.916 261.117 230.169C257.178 231.768 253.14 233.021 249.24 234.752Q245.735 236.292 242.328 238.04Q238.921 239.787 235.625 241.736Q232.329 243.684 229.155 245.827Q225.982 247.969 222.943 250.297Q219.903 252.626 217.008 255.132Q214.114 257.638 211.375 260.314Q208.635 262.989 206.061 265.823Q203.487 268.658 201.087 271.641C189.536 285.942 181.913 301.757 176.368 319.198C175.049 323.346 173.844 327.572 173.092 331.863C172.468 335.419 172.173 339.067 171.407 342.594C171.282 343.167 171.215 343.544 170.752 343.946C170.196 343.354 170.14 342.473 169.949 341.689C168.844 336.483 167.982 331.205 166.714 326.037C164.926 318.749 162.279 311.428 159.316 304.542Q158.723 303.141 158.099 301.754Q157.474 300.366 156.818 298.994Q156.162 297.621 155.474 296.264Q154.787 294.907 154.069 293.566Q153.35 292.225 152.601 290.901Q151.852 289.577 151.073 288.27Q150.294 286.963 149.485 285.675Q148.676 284.386 147.838 283.117Q147 281.847 146.133 280.597Q145.266 279.347 144.37 278.117Q143.475 276.887 142.551 275.678Q141.628 274.469 140.677 273.282Q139.726 272.094 138.748 270.929Q137.77 269.763 136.766 268.621Q135.762 267.478 134.731 266.358Q133.701 265.239 132.645 264.144Q131.59 263.048 130.509 261.977Q129.429 260.906 128.324 259.86Q127.219 258.814 126.091 257.794Q124.962 256.774 123.811 255.78Q122.659 254.785 121.485 253.818Q120.311 252.85 119.115 251.91Q117.919 250.97 116.702 250.057Q115.485 249.144 114.247 248.26Q113.01 247.375 111.752 246.519Q110.494 245.663 109.217 244.836Q107.94 244.009 106.645 243.212Q105.349 242.414 104.035 241.647Q102.722 240.879 101.391 240.142Q100.06 239.405 98.713 238.698Q97.3656 237.992 96.0025 237.316Q94.6393 236.641 93.261 235.997C87.0077 233.054 80.4585 231.343 74.0772 228.801C78.4577 227.174 83.0707 226.351 87.5294 224.969C125.517 213.192 150.607 177.213 162.837 141.076Q165.356 133.764 167.242 126.264C168.089 122.909 169.28 115.181 170.711 112.567C170.744 112.506 170.78 112.448 170.815 112.388Z"/>
</svg>
